<?xml version="1.0" encoding="UTF-8"?>
<svg id="Calque_2" data-name="Calque 2" xmlns="http://www.w3.org/2000/svg" viewBox="0 0 799.13 774.42">
  <defs>
    <style>
      .cls-1 {
        fill: #a44082;
      }

      .cls-2 {
        fill: #ca599d;
      }
    </style>
  </defs>
  <g id="Calque_3" data-name="Calque 3">
    <g>
      <path class="cls-1" d="M519.37,337.71c-16.47-19.91-36.02-33.12-55.93-41.82-45.88-20.05-93.66-16.1-109.99-14.75-88.45,7.3-201.22,69.44-199.07,146.53.62,22.11,10.6,42.27,26.3,59.95,36.22,40.77,102.83,68.3,154.98,76.06,63.25,9.41,179.31.77,212.96-78.66,21.51-50.74,1.04-110.7-29.25-147.31ZM285.32,420.25c-3.75,28.11-23.33,48.69-43.73,45.97-20.41-2.73-33.91-27.72-30.16-55.83,3.75-28.11,23.33-48.69,43.74-45.96,20.4,2.72,33.9,27.71,30.15,55.82ZM411.05,479.64c-25.79,4.6-51.83-20.46-58.17-55.98-6.35-35.52,9.42-68.05,35.2-72.66,25.79-4.6,51.83,20.46,58.17,55.98,6.35,35.53-9.41,68.05-35.2,72.66Z"/>
      <path class="cls-2" d="M511.01,337.57c-13.18-18.95-29.77-32.32-47.57-41.68-51.07-26.87-112.06-20.75-130.98-18.85-80.36,8.07-191.69,60.51-192.68,134.17-.38,28.67,16.03,54.71,40.9,76.41,38.03,33.16,95.85,56.15,143.71,62.8,13.09,1.82,153.97,19.42,199.74-70.62,23.16-45.57,14.05-103.18-13.12-142.23ZM285.32,420.25c-3.75,28.11-23.33,48.69-43.73,45.97-20.41-2.73-33.91-27.72-30.16-55.83,3.75-28.11,23.33-48.69,43.74-45.96,20.4,2.72,33.9,27.71,30.15,55.82ZM411.05,479.64c-25.79,4.6-51.83-20.46-58.17-55.98-6.35-35.52,9.42-68.05,35.2-72.66,25.79-4.6,51.83,20.46,58.17,55.98,6.35,35.53-9.41,68.05-35.2,72.66Z"/>
      <path class="cls-2" d="M260.83,377.97c-5.86,1.1-11.38,2.98-16.08,6.39-8.96,6.61-13.95,18.05-16.06,28.75-1.12,5.8-1.53,11.87-1.68,18.22.02.9-1.3,1.19-1.65.34-3.95-9-4.9-19.62-2.54-29.31,1.62-6.68,4.83-13.08,9.42-18.26,6.9-7.92,19.05-11.48,28.72-8.18,1.02.33.93,1.87-.12,2.06Z"/>
      <path class="cls-2" d="M409.33,362.64c-.13.52-.53.9-1.01,1.01-7.58,1.98-14.73,4.86-20.61,9.69-11.42,9.29-16.29,24.91-17.32,39.18-.54,7.76-.07,15.76.72,24.08.15,1.15-1.51,1.74-2.1.7-6.66-11.3-9.51-24.83-7.91-37.93,2.36-18.88,14.11-36.26,33.96-39.04,4.43-.63,8.95-.49,13.27.62.74.19,1.2.95,1.01,1.69Z"/>
      <path class="cls-2" d="M777.96,278.42l-82.71-77.87c9.34-18.69,16.53-38.17,21.45-58.18,2.88-11.68,3.44-21.2,4.1-32.23.58-9.85,1.24-21.03,3.67-36.64,2.98-19.17,7.14-38.28,12.35-56.79.78-2.78-.77-5.68-3.51-6.57-31.92-10.37-65.2-12.85-96.23-7.16-46.26,8.47-76.19,32.59-98.05,50.2l-1.19.96c-11.32,9.12-21.79,19.07-31.35,29.77l-149.23-51.97c-18.16-6.33-38.2-4.57-54.98,4.82l-82.47,46.13c-2.84-2.3-5.68-4.61-8.52-6.91-4.74-3.85-9.09-7.4-13.09-10.66-38.76-31.56-45.74-37.24-58.86-40.93-19.87-5.57-53.46-4.65-100.66,31.34-1.3.99-2,2.58-1.85,4.2.14,1.63,1.11,3.06,2.57,3.8,20.97,10.7,33.93,23.91,38.53,39.28,2.47,8.26,1.88,14.78,1.2,22.33-.64,6.97-1.35,14.86.51,24.82,1.46,7.82,4.25,15.43,8.35,22.81L9.11,308.76c-7.03,12.1-10.09,25.86-8.84,39.8l15.37,171.94c1.03,11.57,5.07,22.74,11.68,32.3,23.37,33.77,46.32,61.63,68.51,88.57,22.26,27.02,43.28,52.54,64.98,83.9,10.44,15.09,26.82,25.36,44.95,28.2l128.9,20.14c3.45.54,6.92.81,10.39.81,3.92-.01,7.83-.35,11.72-1.04l331.33-58.59c28.32-5.01,50.33-27.46,54.77-55.88,8.9-56.9,18.4-109.16,27.58-159.69,9.27-50.96,18.84-103.65,27.87-161.41,3.43-21.96-4.18-44.16-20.36-59.39ZM623.66,614.49c-105.67,15.47-211.35,30.93-317.03,46.39-22.11-3.49-44.23-6.99-66.34-10.48-47.76-43.98-95.51-87.96-143.26-131.95-4.57-58.63-9.15-117.27-13.72-175.91,27.11-42.95,54.22-85.89,81.33-128.84,60.05-33.37,120.09-66.74,180.13-100.11,52.96,18.23,105.91,36.45,158.86,54.66,1.78-3.01,3.77-6.07,5.97-9.14,4.96-6.92,11.04-13.88,18.47-20.38,2.8-2.46,5.8-4.85,9-7.15.71-.52,1.44-1.03,2.17-1.53,15.39-10.57,31.16-16.17,45.51-18.89,27.16-5.18,49.23-.07,54.05,1.13.18,9.53-.21,20.8-1.89,33.33-1.25,9.29-3.2,19.26-6.15,29.72-.93,3.3-1.92,6.52-2.97,9.66-.89,2.65-1.81,5.24-2.77,7.78-3.62,9.6-7.73,18.41-12.07,26.43-4.02,7.45-8.24,14.23-12.44,20.32,22.2,31.5,44.4,63,66.61,94.49-14.49,93.49-28.97,186.98-43.46,280.47Z"/>
      <path class="cls-2" d="M604.64,122.52c-14.22,4.81-27.64,10.62-40.01,18.65-1.47.95-2.93,1.93-4.37,2.95-3.3,2.3-6.46,4.72-9.5,7.26-5.99,4.98-11.53,10.42-16.82,16.2-2.54,2.77-5.02,5.62-7.46,8.54-.57.67-1.12,1.34-1.68,2.02-1.72,2.14-5.22.25-4.36-2.36.18-.52.36-1.04.54-1.55h.01c1.2-3.32,2.64-6.55,4.3-9.66,3.77-7.11,8.65-13.63,14.35-19.39,3.23-3.28,6.74-6.32,10.46-9.07h.01c15.57-11.51,34.88-18.07,54.05-17.18,1.99.12,2.38,2.96.48,3.59Z"/>
    </g>
  </g>
</svg>