<svg id="visual" viewBox="0 0 540 960" width="540" height="960" xmlns="http://www.w3.org/2000/svg" xmlns:xlink="http://www.w3.org/1999/xlink" version="1.1"><path d="M0 327L77 356L154 385L231 423L309 366L386 318L463 318L540 385L540 0L463 0L386 0L309 0L231 0L154 0L77 0L0 0Z" fill="#2b2c32"></path><path d="M0 750L77 721L154 692L231 711L309 692L386 731L463 683L540 711L540 383L463 316L386 316L309 364L231 421L154 383L77 354L0 325Z" fill="#1c1d20"></path><path d="M0 961L77 961L154 961L231 961L309 961L386 961L463 961L540 961L540 709L463 681L386 729L309 690L231 709L154 690L77 719L0 748Z" fill="#0c0c0e"></path></svg>