<svg id="visual" viewBox="0 0 1920 4000" width="1920" height="4000" xmlns="http://www.w3.org/2000/svg" xmlns:xlink="http://www.w3.org/1999/xlink" version="1.1"><path d="M0 1201L175 1401L349 1281L524 1081L698 1001L873 1441L1047 1481L1222 1561L1396 1001L1571 1281L1745 1521L1920 1161L1920 0L1745 0L1571 0L1396 0L1222 0L1047 0L873 0L698 0L524 0L349 0L175 0L0 0Z" fill="#383a43"></path><path d="M0 2681L175 2401L349 2361L524 2561L698 2561L873 2521L1047 2601L1222 2681L1396 2521L1571 2681L1745 2641L1920 2641L1920 1159L1745 1519L1571 1279L1396 999L1222 1559L1047 1479L873 1439L698 999L524 1079L349 1279L175 1399L0 1199Z" fill="#2c2d33"></path><path d="M0 3321L175 3361L349 3281L524 3401L698 3361L873 3321L1047 3281L1222 3321L1396 3481L1571 3481L1745 3321L1920 3441L1920 2639L1745 2639L1571 2679L1396 2519L1222 2679L1047 2599L873 2519L698 2559L524 2559L349 2359L175 2399L0 2679Z" fill="#202125"></path><path d="M0 4001L175 4001L349 4001L524 4001L698 4001L873 4001L1047 4001L1222 4001L1396 4001L1571 4001L1745 4001L1920 4001L1920 3439L1745 3319L1571 3479L1396 3479L1222 3319L1047 3279L873 3319L698 3359L524 3399L349 3279L175 3359L0 3319Z" fill="#151517"></path></svg>