<svg id="visual" viewBox="0 0 540 960" width="540" height="960" xmlns="http://www.w3.org/2000/svg" xmlns:xlink="http://www.w3.org/1999/xlink" version="1.1"><path d="M0 231L77 299L154 270L231 452L309 299L386 404L463 366L540 308L540 0L463 0L386 0L309 0L231 0L154 0L77 0L0 0Z" fill="#2b2c32"></path><path d="M0 644L77 683L154 644L231 788L309 750L386 779L463 740L540 750L540 306L463 364L386 402L309 297L231 450L154 268L77 297L0 229Z" fill="#1c1d20"></path><path d="M0 961L77 961L154 961L231 961L309 961L386 961L463 961L540 961L540 748L463 738L386 777L309 748L231 786L154 642L77 681L0 642Z" fill="#0c0c0e"></path></svg>